# xmcd CD database file
# Copyright (C) 1993-1998 Ti Kan
#
# Track frame offsets:
#  150
#  5778
#  16763
#  26703
#  44748
#  54013
#  67250
#  82448
#  94018
#  108228
#  122370
#  134323
#  146295
#  157753
#  169765
#  189018
#  214175
#  230060
#
# Disc length: 3204 seconds
#
# Revision: 1
# Processed by: cddbd v1.4b41PL1 Copyright (c) Steve Scherf et al.
# Submitted via: CDWizzard Release:4.35
#
DISCID=ee0c8212
DTITLE=Elvis Costello - No Dancing
DYEAR=1900
DGENRE=
TTITLE0=Welcome to the Working Week
TTITLE1=Red Shoes
TTITLE2=Hand in Hand
TTITLE3=Waiting fo rthe End of the World
TTITLE4=No Action
TTITLE5=Less than Zero
TTITLE6=The Beat
TTITLE7=No Dancing
TTITLE8=Big Tears
TTITLE9=Blame it on Cain
TTITLE10=Little Triggers
TTITLE11=Radio Radio
TTITLE12=You Belong to Me
TTITLE13=Pump it Up
TTITLE14=Lipstick Vogue
TTITLE15=Watching the Detectives
TTITLE16=Miracle Man
TTITLE17=Mystery Dance
EXTD=
EXTT0=
EXTT1=
EXTT2=
EXTT3=
EXTT4=
EXTT5=
EXTT6=
EXTT7=
EXTT8=
EXTT9=
EXTT10=
EXTT11=
EXTT12=
EXTT13=
EXTT14=
EXTT15=
EXTT16=
EXTT17=
PLAYORDER=
